<svg width="119" height="33" viewBox="0 0 119 33" fill="none" xmlns="http://www.w3.org/2000/svg">
<path d="M17.4 5.76L17.84 12.68H17.24C16.68 10.08 14.96 4.68 8.52 4.68C6.92 4.68 5.48 5.2 4.48 6.08C3.6 6.84 3.08 7.88 3.08 9.04C3.08 11.36 4.8 13.44 9.64 16C11.64 17.04 14.52 18.2 16.56 19.8C18.04 20.96 19.12 22.32 19.12 24.08C19.12 26.6 18 28.92 16 30.52C14.28 31.88 11.92 32.68 9.04 32.56C5.68 32.4 2.56 30.68 0.88 29.72V22.68H1.48C2 27.92 5.08 30.76 10.28 30.72C12.36 30.68 14 30.2 15.08 29.32C16.12 28.48 16.68 27.32 16.68 25.92C16.68 24.32 15.92 23.04 14.76 21.96C12.76 20.12 9.6 18.88 7.36 17.76C1.92 15 0.6 12.76 0.6 10.24C0.6 8.32 1.48 6.72 3 5.56C4.76 4.2 7.4 3.44 10.6 3.44C14.04 3.44 16.84 5.32 17.4 5.76ZM39.8034 28.92C41.0034 30.32 42.0834 31.44 44.2034 31.44V32H40.0834C37.0834 32 34.1634 25.96 31.4034 20.68L27.5634 24.08V28.6C27.5634 30.52 28.7634 31.36 30.9634 31.44V32H21.4034V31.44C23.2034 31.36 24.8834 30.52 24.8834 28.6V5.6C24.8834 1.76 22.2834 3.4 20.8434 3.8V3.24L27.5634 0.799999V23.16L34.5634 16.44C34.6034 16.44 34.6034 16.4 34.6434 16.4L35.2434 15.8C36.8434 14.04 36.3234 12.64 33.9634 12.56V12H42.6434V12.56C41.0434 12.6 39.3634 13.76 37.9234 14.92L36.3234 16.36C36.1234 16.52 35.9234 16.68 35.7634 16.84L33.2834 19C35.6834 23.52 38.1234 26.92 39.8034 28.92ZM49.2969 6.04C48.6169 6.04 48.0169 5.72 47.6169 5.2C47.3369 4.84 47.2169 4.44 47.2169 3.96C47.2169 3.4 47.4569 2.88 47.8169 2.52C48.2169 2.12 48.7369 1.92 49.2969 1.92C49.8569 1.92 50.3769 2.16 50.7369 2.52C51.1369 2.92 51.3369 3.4 51.3369 3.96C51.3369 4.52 51.1369 5.04 50.7769 5.4C50.3769 5.8 49.8569 6.04 49.2969 6.04ZM50.4169 29.2C50.4969 30.28 51.7369 31.36 53.8169 31.44V32H44.2569V31.44C45.9769 31.36 47.6569 30.28 47.7369 29.16V16.76C47.7369 12.92 45.1369 14.56 43.6969 14.96V14.4L50.4169 11.96V29.2ZM75.9488 28.6C75.9488 30.52 77.1488 31.36 79.3488 31.44V32H69.7888V31.44C71.5888 31.36 73.2688 30.52 73.2688 28.6V20.84C73.2688 16.48 71.7888 13.36 67.8288 13.36C65.5088 13.36 63.0288 15.6 61.8688 16.48V28.6C61.8688 30.52 63.0688 31.36 65.2688 31.44V32H55.7088V31.44C57.5088 31.36 59.1888 30.52 59.1888 28.6V16.24C59.1888 12.4 56.5888 14.04 55.1488 14.44V13.88L61.8688 11.44V15.48C63.9488 14.08 67.5488 11.48 69.5488 11.48C71.4288 11.48 72.9488 12.08 73.9888 13.08C75.2288 14.28 75.9488 16 75.9488 18.04V28.6ZM91.1441 30.4C94.0241 30.4 95.8241 29.88 98.2641 28.32L98.7041 28.64C96.7841 31.04 94.1041 32.52 90.3841 32.52C87.5841 32.52 84.9441 31.48 83.1841 29.44C81.7441 27.76 80.8641 25.44 80.8641 22.44C80.8641 20.6 81.2241 18.8 81.9041 17.24C82.6241 15.52 83.7041 14.08 85.1041 13.08C86.4641 12.08 88.1441 11.48 90.0641 11.48C93.0641 11.48 95.3441 12.76 96.8641 14.64C98.3041 16.48 99.0241 18.84 99.0241 21.12L83.6241 20.72C83.5841 21.16 83.5841 21.6 83.5841 22.04C83.5841 24.16 84.2241 26 85.2641 27.4C86.6241 29.28 88.7841 30.4 91.1441 30.4ZM85.2641 14.88C84.4641 16.12 83.9441 17.8 83.7041 19.68L96.1841 19.32C96.1841 17.76 95.3841 15.84 94.0241 14.48C92.8641 13.28 91.3441 12.48 89.5441 12.48C87.6641 12.48 86.2241 13.4 85.2641 14.88ZM116.656 12.36C117.416 13 117.936 13.84 118.176 14.48L117.776 19.32H117.216C117.056 17.28 116.456 15.44 115.536 14.36C114.936 13.64 114.176 13.2 113.296 13.2C110.256 13.2 108.456 16.52 107.136 18.44L107.176 28.68C107.176 29.6 107.896 30.28 108.976 30.72C110.096 31.24 111.616 31.48 112.976 31.52V32.08H101.016V31.52C101.976 31.48 102.896 31.24 103.536 30.72C104.096 30.28 104.456 29.72 104.496 28.88L104.456 16.36V16.24C104.456 15 104.176 14.32 103.776 14C102.896 13.32 101.376 14.16 100.416 14.44V13.88L107.136 11.44V17.12C108.856 14.28 111.616 11.48 114.376 11.48C115.256 11.48 116.056 11.84 116.656 12.36Z" fill="#fdfdf1"/>
</svg>
