<svg xmlns="http://www.w3.org/2000/svg" width="140" height="25" viewBox="0 0 140 25" fill="#ed8a19">
  <defs>
    <style>
      .cls-1 {
        fill-rule: evenodd;
      }
    </style>
  </defs>
  <path class="cls-1" d="M1030,2946l4.28,7.86,8.72,1.69-6.07,6.55,1.1,8.9-8.03-3.81-8.03,3.81,1.1-8.9-6.07-6.55,8.72-1.69L1030,2946" transform="translate(-1017 -2946)"/>
  <path id="Shape_3_copy" data-name="Shape 3 copy" class="cls-1" d="M1059,2946l4.28,7.86,8.72,1.69-6.07,6.55,1.1,8.9-8.03-3.81-8.03,3.81,1.1-8.9-6.07-6.55,8.72-1.69L1059,2946" transform="translate(-1017 -2946)"/>
  <path id="Shape_3_copy_2" data-name="Shape 3 copy 2" class="cls-1" d="M1087,2946l4.28,7.86,8.72,1.69-6.07,6.55,1.1,8.9-8.03-3.81-8.03,3.81,1.1-8.9-6.07-6.55,8.72-1.69L1087,2946" transform="translate(-1017 -2946)"/>
  <path id="Shape_3_copy_3" data-name="Shape 3 copy 3" class="cls-1" d="M1116,2946l4.28,7.86,8.72,1.69-6.07,6.55,1.1,8.9-8.03-3.81-8.03,3.81,1.1-8.9-6.07-6.55,8.72-1.69L1116,2946" transform="translate(-1017 -2946)"/>
  <path id="Shape_3_copy_4" data-name="Shape 3 copy 4" class="cls-1" d="M1144,2946l4.28,7.86,8.72,1.69-6.07,6.55,1.1,8.9-8.03-3.81-8.03,3.81,1.1-8.9-6.07-6.55,8.72-1.69L1144,2946" transform="translate(-1017 -2946)"/>
</svg>
