<svg id="Layer_1" fill="#351d1d" viewBox="0 0 128 128" xmlns="http://www.w3.org/2000/svg" data-name="Layer 1"><path d="m52.30969 82.6015c1.737-.27136 3.36316-.45337 4.86829-.53937a29.88876 29.88876 0 0 1 25.44391-14.0672c12.7514 0 23.62671 7.78375 27.68109 18.62561 1.24969-.78119 2.42249-1.4892 3.4762-2.0885a33.27431 33.27431 0 0 0 -27.79609-20.35604c.00549-.06049.01825-.1189.01825-.18079v-1.26706l6.25385-3.38086a26.36469 26.36469 0 0 0 6.03827.72491 17.247 17.247 0 0 0 8.19054-1.8622c6.52551-3.52753 8.39319-11.57379 8.46936-11.91461a1.99991 1.99991 0 0 0 -1.36426-2.34845c-.34814-.10736-8.60754-2.58032-15.07007.91254-5.30933 2.87018-7.53473 8.73047-8.221 10.99908l-4.29669 2.32288v-16.45164l6.25385-3.38086a26.36469 26.36469 0 0 0 6.03827.72491 17.247 17.247 0 0 0 8.19055-1.86218c6.52551-3.52753 8.39319-11.57379 8.46936-11.91461a1.99991 1.99991 0 0 0 -1.36426-2.34845c-.34814-.10693-8.60754-2.57983-15.07007.91254-5.30933 2.87018-7.53473 8.73047-8.221 10.99908l-4.29669 2.32288v-8.29711c1.91949-1.81207 7.00006-7.2334 7.00006-13.8869 0-8.02478-7.40631-14.27478-7.72125-14.537a2.00057 2.00057 0 0 0 -2.55768 0c-.31494.26221-7.72125 6.51221-7.72125 14.537 0 6.6535 5.08057 12.07483 7.00006 13.8869v8.29712l-4.29669-2.32288c-.68628-2.26862-2.91168-8.12891-8.22107-10.99908-6.46246-3.49286-14.72089-1.01947-15.07-.91254a1.99992 1.99992 0 0 0 -1.36426 2.34845c.07617.34082 1.94385 8.38708 8.46936 11.91461a17.24116 17.24116 0 0 0 8.19049 1.86218 26.36453 26.36453 0 0 0 6.03833-.725l6.25385 3.38092v16.45168l-4.29669-2.32288c-.68628-2.26862-2.91168-8.12891-8.22107-10.99908-6.46246-3.49335-14.72089-1.0199-15.07-.91254a1.99992 1.99992 0 0 0 -1.36426 2.34845c.07617.34082 1.94385 8.38708 8.46936 11.91461a17.24116 17.24116 0 0 0 8.19049 1.86218 26.36453 26.36453 0 0 0 6.03833-.725l6.25385 3.38092v1.26709l.00226.02209a33.7597 33.7597 0 0 0 -29.69388 18.5842zm48.11176-34.22369c3.34137-1.80505 7.57672-1.46765 10.01575-1.04681-.83008 2.15851-2.59772 5.59967-5.85553 7.36078-3.34088 1.806-7.57532 1.46912-10.01575 1.04675.83008-2.15853 2.59765-5.59961 5.85553-7.36072zm0-20.99835c3.34137-1.80505 7.57672-1.46814 10.01575-1.04681-.83008 2.15851-2.59772 5.59967-5.85553 7.36078-3.34088 1.806-7.57532 1.46863-10.01575 1.04675.83008-2.15851 2.59765-5.59968 5.85553-7.36072zm-37.00045 6.31396c-3.23492-1.7489-5.0108-5.19885-5.84869-7.36176 2.44238-.42035 6.67291-.75531 10.00891 1.04779 3.23492 1.74884 5.0108 5.19879 5.84869 7.36169-2.44191.42086-6.67149.7563-10.00891-1.04772zm0 20.99835c-3.23492-1.7489-5.0108-5.19885-5.84869-7.36176 2.44238-.41986 6.67291-.75531 10.00891 1.04779 3.23492 1.7489 5.0108 5.19879 5.84869 7.36169-2.44191.4214-6.67149.7563-10.00891-1.04772zm15.58022-39.69269c0-4.37469 3.16364-8.31384 5.00006-10.23163 1.837 1.91876 5.00006 5.85742 5.00006 10.23163 0 4.37463-3.16357 8.31378-5.00006 10.23157-1.83691-1.91876-5.00006-5.85742-5.00006-10.23157z"/><path d="m126.3114 87.965c-1.67676-1.82361-4.29205-2.41437-7.17535-1.621-2.3006.633-9.75775 5.54462-15.73126 9.64111a11.63453 11.63453 0 0 1 .55408 4.48016c6.98584-4.82306 14.57074-9.80634 16.23822-10.26514.99609-.27386 2.356-.414 3.16852.4707a3.10163 3.10163 0 0 1 .40625 3.10278c-1.32136 3.58863-26.14686 22.5608-36.38868 27.80839-7.85846 4.027-13.14032 2.17657-17.79956.54584-.52588-.184-1.03369-.36176-1.52588-.52386-7.29889-2.40558-19.58179-5.00793-26.25421-6.34521a48.43747 48.43747 0 0 0 -6.80286-.862v-19.84147a71.73533 71.73533 0 0 0 9.00305-1.90167c7.08557-1.99591 13.05731-2.92017 16.822-2.596a32.32668 32.32668 0 0 1 10.66711 2.88312 32.76416 32.76416 0 0 0 12.35852 2.29572c4.34863.10986 9.76013.247 11.41608 2.254 2.21124 2.68011-.61444 5.40594-3.14545 6.14667-5.15143 1.5072-19.24292 2.89917-25.07452 2.14777a2 2 0 1 0 -.50977 3.96747 37.79431 37.79431 0 0 0 4.61676.23389c7.21051 0 17.59833-1.19574 22.09058-2.51056 4.48834-1.31335 5.95667-4.10614 6.43225-5.65436a7.5647 7.5647 0 0 0 -1.32379-6.87592c-2.81689-3.41431-8.70563-3.56317-14.40112-3.70721a28.55089 28.55089 0 0 1 -10.90971-1.98522 36.22656 36.22656 0 0 0 -11.87512-3.18042c-5.42438-.46234-12.91571 1.22943-18.24878 2.73175a67.621 67.621 0 0 1 -8.77856 1.83117 6.98878 6.98878 0 0 0 -11.13965-1.53186 6.9863 6.9863 0 0 0 -11.50525 2.32025c-3.09546-.08-6.21106-.20673-9.3559-.4259a1.99981 1.99981 0 1 0 -.27832 3.98993c3.06946.21436 6.11365.34406 9.13928.42871v20.39575c-2.78961.26044-5.83685.55975-9.20813.91211a2 2 0 1 0 .416 3.97821c3.64215-.3808 6.91888-.70166 9.88287-.97565a6.98059 6.98059 0 0 0 10.90942 1.15338 6.98465 6.98465 0 0 0 11.57148-2.50079 44.25535 44.25535 0 0 1 6.44543.80072c6.584 1.3197 18.68915 3.88251 25.78839 6.22217.46973.15479.9541.32471 1.45605.50043a29.13087 29.13087 0 0 0 9.97959 2.09704 23.70884 23.70884 0 0 0 10.966-2.8587c9.00055-4.61194 36.28363-24.46 38.31836-29.9859a7.07511 7.07511 0 0 0 -1.21442-7.1904zm-105.31091 28.02615a3 3 0 0 1 -6.00006 0v-21.99829a3 3 0 0 1 6.00006 0zm10.00012 0a3 3 0 0 1 -6.00006 0v-21.99829a3 3 0 0 1 6.00006 0z"/></svg>