<svg id="Capa_1" fill="#351d1d" enable-background="new 0 0 509.763 509.763" height="512" viewBox="0 0 509.763 509.763" width="512" xmlns="http://www.w3.org/2000/svg"><g><path d="m238.872 430.376v-24.854c0-4.159-.332-8.351-.985-12.456-4.722-29.682-26.343-54.547-55.082-63.347l-25.221-7.723v-40.428c0-18.229-13-33.476-30.215-36.964v-5.372c0-13.309-10.828-24.137-24.137-24.137-3.233 0-6.316.643-9.137 1.801v-1.323c0-13.309-10.828-24.137-24.137-24.137-3.914 0-7.61.942-10.882 2.603-3.958-10.64-14.215-18.241-26.216-18.241-15.418 0-27.962 12.543-27.962 27.961v75.431c0 28.592 7.348 56.91 21.249 81.896s34.09 46.16 58.385 61.236l11.056 6.86c-5.355 4.479-8.769 11.207-8.769 18.719v54.361c0 4.143 3.358 7.5 7.5 7.5s7.5-3.357 7.5-7.5v-54.361c0-5.185 4.218-9.402 9.402-9.402h72.727c4.142 0 7.5-3.357 7.5-7.5s-3.358-7.5-7.5-7.5h-69.068l-22.439-13.923c-22.131-13.732-40.522-33.022-53.186-55.782-12.663-22.761-19.356-48.558-19.356-74.604v-75.43c0-7.146 5.814-12.961 12.962-12.961 7.147 0 12.961 5.814 12.961 12.961v11.812 24.346 42.018c0 9.88 4.034 19.526 11.065 26.465l2.27 2.241c1.021 6.164 4.048 12.04 9.023 16.598l62.404 57.183c3.053 2.798 7.797 2.591 10.597-.462 2.798-3.055 2.591-7.799-.463-10.597l-62.404-57.184c-5.536-5.072-6.07-13.533-1.215-19.262 4.846-5.72 13.272-6.588 19.183-1.977l49.482 38.605c.722.563 1.542.99 2.417 1.258l30.232 9.257c23.301 7.136 40.831 27.296 44.66 51.362.53 3.329.798 6.727.798 10.099v18.063c-.645-.051-1.296-.085-1.954-.085h-6.007c-4.142 0-7.5 3.357-7.5 7.5s3.358 7.5 7.5 7.5h6.007c5.184 0 9.402 4.218 9.402 9.402v54.361c0 4.143 3.358 7.5 7.5 7.5s7.5-3.357 7.5-7.5v-54.361c.001-6.873-2.86-13.087-7.447-17.526zm-96.287-148.808v30.473l-15.215-11.87v-40.039c8.85 3.105 15.215 11.538 15.215 21.436zm-76.93 5.652c-1.057 1.247-1.983 2.56-2.795 3.917-1.311-2.874-2.037-6.012-2.037-9.202v-42.018-24.345c0-5.037 4.099-9.136 9.137-9.136s9.137 4.099 9.137 9.137v23.658 39.057c-5.064 1.584-9.753 4.579-13.442 8.932zm28.441-9.536v-38.452c0-5.038 4.099-9.137 9.137-9.137s9.137 4.099 9.137 9.137v49.236l-6.861-5.353c-3.481-2.716-7.381-4.515-11.413-5.431z"/><path d="m497.364 232.761c4.142 0 7.5-3.357 7.5-7.5v-21.5c0-15.418-12.543-27.962-27.962-27.962-12.001 0-22.258 7.601-26.216 18.241-3.273-1.661-6.968-2.603-10.882-2.603-13.309 0-24.137 10.828-24.137 24.137v1.323c-2.82-1.158-5.904-1.801-9.137-1.801-13.309 0-24.137 10.828-24.137 24.137v5.372c-17.215 3.488-30.215 18.735-30.215 36.964v40.428l-25.221 7.723c-28.738 8.8-50.359 33.665-55.082 63.347-.653 4.105-.985 8.297-.985 12.456v24.854c-4.587 4.439-7.448 10.653-7.448 17.526v54.361c0 4.143 3.358 7.5 7.5 7.5s7.5-3.357 7.5-7.5v-54.361c0-5.185 4.218-9.402 9.402-9.402h110.696c5.184 0 9.402 4.218 9.402 9.402v54.361c0 4.143 3.358 7.5 7.5 7.5s7.5-3.357 7.5-7.5v-54.361c0-7.512-3.414-14.239-8.769-18.719l11.057-6.861c24.295-15.075 44.484-36.249 58.385-61.234s21.249-53.305 21.249-81.896v-21.967c0-4.143-3.358-7.5-7.5-7.5s-7.5 3.357-7.5 7.5v21.967c0 26.046-6.693 51.843-19.356 74.604s-31.054 42.049-53.186 55.781l-22.439 13.922h-107.038c-.658 0-1.309.034-1.954.085v-18.063c0-3.372.269-6.77.798-10.099 3.829-24.066 21.359-44.227 44.66-51.362l30.232-9.257c.876-.268 1.695-.694 2.417-1.258l49.482-38.605c5.91-4.61 14.337-3.743 19.183 1.977 4.854 5.729 4.32 14.189-1.216 19.263l-62.404 57.183c-3.054 2.798-3.261 7.542-.463 10.597 2.798 3.053 7.542 3.26 10.597.462l62.404-57.182c4.975-4.559 8.002-10.436 9.023-16.6l2.268-2.239c7.033-6.938 11.067-16.585 11.067-26.466v-42.018-24.345-11.812c0-7.147 5.814-12.962 12.961-12.962s12.962 5.814 12.962 12.962v21.5c.002 4.143 3.36 7.5 7.502 7.5zm-114.971 27.37v40.039l-15.215 11.87v-30.473c0-9.897 6.366-18.33 15.215-21.436zm21.862 22.984-6.861 5.353v-49.236c0-5.038 4.099-9.137 9.137-9.137s9.137 4.099 9.137 9.137v38.453c-4.032.916-7.933 2.715-11.413 5.43zm26.412-4.825v-39.058-23.658c0-5.038 4.099-9.137 9.137-9.137s9.136 4.099 9.137 9.136v24.345 42.018c0 3.189-.726 6.328-2.037 9.202-.812-1.357-1.738-2.67-2.795-3.917-3.69-4.354-8.379-7.348-13.442-8.931z"/><path d="m367.121 154.971c0-24.508-16.392-56.414-48.719-94.833-2.666-3.168-7.398-3.576-10.567-.909-3.169 2.666-3.577 7.397-.91 10.567 29.568 35.139 45.197 64.592 45.197 85.175 0 53.894-43.846 97.739-97.74 97.739s-97.74-43.846-97.74-97.739c0-19.632 14.308-47.493 41.375-80.574 21.902-26.767 46.185-49.705 56.364-58.986 6.171 5.627 17.764 16.493 30.864 30.246 2.857 3 7.604 3.114 10.604.258s3.115-7.604.258-10.604c-13.98-14.677-26.298-26.155-32.396-31.691-5.318-4.826-13.339-4.826-18.659 0-24.259 22.021-103.41 98.015-103.41 151.352 0 62.165 50.575 112.739 112.74 112.739s112.739-50.575 112.739-112.74z"/><path d="m336.686 58.484c3.236 2.586 7.956 2.056 10.541-1.181 11.609-14.539 24.772-27.354 31.828-33.909 25.137 23.292 53.25 56.313 53.25 76.256 0 25.943-18.527 47.998-44.052 52.442-4.081.71-6.813 4.595-6.103 8.675.634 3.646 3.802 6.215 7.38 6.215.427 0 .86-.036 1.295-.112 32.727-5.697 56.48-33.967 56.48-67.22 0-14.297-8.936-32.466-26.56-54.004-13.467-16.459-28.387-30.458-34.174-35.712-4.285-3.892-10.749-3.892-15.034-.002-6.204 5.632-22.134 20.607-36.031 38.012-2.586 3.236-2.057 7.956 1.18 10.54z"/><path d="m117.807 166.667c.477.091.951.135 1.419.135 3.526 0 6.67-2.499 7.358-6.09.779-4.068-1.887-7.998-5.955-8.777-25.015-4.792-43.17-26.78-43.17-52.285 0-19.943 28.111-52.963 53.25-76.256 6.941 6.45 19.856 19.017 31.348 33.308 2.595 3.228 7.316 3.741 10.544 1.145s3.741-7.316 1.145-10.545c-13.779-17.137-29.429-31.842-35.518-37.368-4.286-3.892-10.75-3.891-15.034-.001-5.789 5.256-20.708 19.255-34.176 35.714-17.624 21.538-26.56 39.707-26.56 54.004.001 32.688 23.279 60.873 55.349 67.016z"/><path d="m293.935 79.794c-1.933-2.863-5.15-4.572-8.604-4.572h-45.589c-4.893 0-9.167 3.477-10.165 8.269l-13.795 66.324c-.459 2.21.1 4.509 1.524 6.26s3.562 2.768 5.818 2.768h9.378l-13.914 54.572c-1.05 3.783.754 7.847 4.319 9.582 1.146.558 2.368.824 3.577.824 2.628 0 5.193-1.26 6.766-3.524l50.981-71.976c1.621-2.288 1.83-5.289.542-7.78-1.288-2.49-3.858-4.055-6.662-4.055h-2.088l18.938-47.001c1.291-3.205.907-6.827-1.026-9.691zm-35.977 61.389c-.931 2.312-.654 4.935.741 7 1.161 1.719 2.97 2.865 4.981 3.2l-21.556 30.433 7.297-28.621c.572-2.243.076-4.626-1.345-6.454-1.421-1.829-3.607-2.898-5.922-2.898h-9.81l11.153-53.62h34.995z"/></g></svg>